<mxfile host="app.diagrams.net" modified="2024-01-25T18:48:45.688Z" agent="Mozilla/5.0 (Windows NT 10.0; Win64; x64) AppleWebKit/537.36 (KHTML, like Gecko) Chrome/120.0.0.0 Safari/537.36" etag="oHhUDc8SIjg7nqCrdZzs" version="22.1.21" type="github">
  <diagram name="Page-1" id="R0nAwH-3YIvT2XhRLp3L">
    <mxGraphModel dx="1361" dy="637" grid="1" gridSize="10" guides="1" tooltips="1" connect="1" arrows="1" fold="1" page="1" pageScale="1" pageWidth="850" pageHeight="1100" math="0" shadow="0">
      <root>
        <mxCell id="0" />
        <mxCell id="1" parent="0" />
        <mxCell id="710XWH-0g-zXLpikxpaZ-4" value="" style="strokeColor=#dddddd;shadow=1;strokeWidth=1;rounded=1;absoluteArcSize=1;arcSize=2;" vertex="1" parent="1">
          <mxGeometry x="450" y="147" width="150" height="44" as="geometry" />
        </mxCell>
        <mxCell id="710XWH-0g-zXLpikxpaZ-5" value="Frontend&#xa;Platform Services" style="sketch=0;dashed=0;connectable=0;html=1;fillColor=#757575;strokeColor=none;shape=mxgraph.gcp2.frontend_platform_services;part=1;labelPosition=right;verticalLabelPosition=middle;align=left;verticalAlign=middle;spacingLeft=5;fontSize=12;" vertex="1" parent="710XWH-0g-zXLpikxpaZ-4">
          <mxGeometry y="0.5" width="32" height="32" relative="1" as="geometry">
            <mxPoint x="5" y="-16" as="offset" />
          </mxGeometry>
        </mxCell>
        <mxCell id="710XWH-0g-zXLpikxpaZ-6" value="" style="sketch=0;outlineConnect=0;fontColor=#232F3E;gradientColor=none;fillColor=#232F3D;strokeColor=none;dashed=0;verticalLabelPosition=bottom;verticalAlign=top;align=center;html=1;fontSize=12;fontStyle=0;aspect=fixed;pointerEvents=1;shape=mxgraph.aws4.client;" vertex="1" parent="1">
          <mxGeometry x="730" y="130" width="78" height="76" as="geometry" />
        </mxCell>
        <mxCell id="710XWH-0g-zXLpikxpaZ-7" value="" style="sketch=0;points=[[0,0,0],[0.25,0,0],[0.5,0,0],[0.75,0,0],[1,0,0],[0,1,0],[0.25,1,0],[0.5,1,0],[0.75,1,0],[1,1,0],[0,0.25,0],[0,0.5,0],[0,0.75,0],[1,0.25,0],[1,0.5,0],[1,0.75,0]];outlineConnect=0;fontColor=#232F3E;fillColor=#E7157B;strokeColor=#ffffff;dashed=0;verticalLabelPosition=bottom;verticalAlign=top;align=center;html=1;fontSize=12;fontStyle=0;aspect=fixed;shape=mxgraph.aws4.resourceIcon;resIcon=mxgraph.aws4.api_gateway;" vertex="1" parent="1">
          <mxGeometry x="400" y="250" width="78" height="78" as="geometry" />
        </mxCell>
        <mxCell id="710XWH-0g-zXLpikxpaZ-8" value="" style="sketch=0;points=[[0,0,0],[0.25,0,0],[0.5,0,0],[0.75,0,0],[1,0,0],[0,1,0],[0.25,1,0],[0.5,1,0],[0.75,1,0],[1,1,0],[0,0.25,0],[0,0.5,0],[0,0.75,0],[1,0.25,0],[1,0.5,0],[1,0.75,0]];outlineConnect=0;fontColor=#232F3E;fillColor=#ED7100;strokeColor=#ffffff;dashed=0;verticalLabelPosition=bottom;verticalAlign=top;align=center;html=1;fontSize=12;fontStyle=0;aspect=fixed;shape=mxgraph.aws4.resourceIcon;resIcon=mxgraph.aws4.lambda;" vertex="1" parent="1">
          <mxGeometry x="540" y="360" width="78" height="78" as="geometry" />
        </mxCell>
        <mxCell id="710XWH-0g-zXLpikxpaZ-9" value="" style="outlineConnect=0;dashed=0;verticalLabelPosition=bottom;verticalAlign=top;align=center;html=1;shape=mxgraph.aws3.dynamo_db;fillColor=#2E73B8;gradientColor=none;" vertex="1" parent="1">
          <mxGeometry x="270" y="359" width="72" height="81" as="geometry" />
        </mxCell>
        <mxCell id="710XWH-0g-zXLpikxpaZ-10" value="AWS Cloud" style="points=[[0,0],[0.25,0],[0.5,0],[0.75,0],[1,0],[1,0.25],[1,0.5],[1,0.75],[1,1],[0.75,1],[0.5,1],[0.25,1],[0,1],[0,0.75],[0,0.5],[0,0.25]];outlineConnect=0;gradientColor=none;html=1;whiteSpace=wrap;fontSize=12;fontStyle=0;container=1;pointerEvents=0;collapsible=0;recursiveResize=0;shape=mxgraph.aws4.group;grIcon=mxgraph.aws4.group_aws_cloud_alt;strokeColor=#232F3E;fillColor=none;verticalAlign=top;align=left;spacingLeft=30;fontColor=#232F3E;dashed=0;" vertex="1" parent="1">
          <mxGeometry x="60" y="60" width="610" height="420" as="geometry" />
        </mxCell>
        <mxCell id="710XWH-0g-zXLpikxpaZ-13" value="" style="endArrow=classic;html=1;rounded=0;" edge="1" parent="710XWH-0g-zXLpikxpaZ-10">
          <mxGeometry width="50" height="50" relative="1" as="geometry">
            <mxPoint x="410" y="108.5" as="sourcePoint" />
            <mxPoint x="320" y="108.5" as="targetPoint" />
          </mxGeometry>
        </mxCell>
        <mxCell id="710XWH-0g-zXLpikxpaZ-14" value="" style="endArrow=classic;html=1;rounded=0;" edge="1" parent="710XWH-0g-zXLpikxpaZ-10">
          <mxGeometry width="50" height="50" relative="1" as="geometry">
            <mxPoint x="260" y="107.5" as="sourcePoint" />
            <mxPoint x="170" y="107.5" as="targetPoint" />
          </mxGeometry>
        </mxCell>
        <mxCell id="710XWH-0g-zXLpikxpaZ-1" value="" style="sketch=0;points=[[0,0,0],[0.25,0,0],[0.5,0,0],[0.75,0,0],[1,0,0],[0,1,0],[0.25,1,0],[0.5,1,0],[0.75,1,0],[1,1,0],[0,0.25,0],[0,0.5,0],[0,0.75,0],[1,0.25,0],[1,0.5,0],[1,0.75,0]];outlineConnect=0;fontColor=#232F3E;fillColor=#7AA116;strokeColor=#ffffff;dashed=0;verticalLabelPosition=bottom;verticalAlign=top;align=center;html=1;fontSize=12;fontStyle=0;aspect=fixed;shape=mxgraph.aws4.resourceIcon;resIcon=mxgraph.aws4.s3;" vertex="1" parent="710XWH-0g-zXLpikxpaZ-10">
          <mxGeometry x="70" y="70" width="78" height="78" as="geometry" />
        </mxCell>
        <mxCell id="710XWH-0g-zXLpikxpaZ-3" value="" style="sketch=0;points=[[0,0,0],[0.25,0,0],[0.5,0,0],[0.75,0,0],[1,0,0],[0,1,0],[0.25,1,0],[0.5,1,0],[0.75,1,0],[1,1,0],[0,0.25,0],[0,0.5,0],[0,0.75,0],[1,0.25,0],[1,0.5,0],[1,0.75,0]];outlineConnect=0;fontColor=#232F3E;fillColor=#8C4FFF;strokeColor=#ffffff;dashed=0;verticalLabelPosition=bottom;verticalAlign=top;align=center;html=1;fontSize=12;fontStyle=0;aspect=fixed;shape=mxgraph.aws4.resourceIcon;resIcon=mxgraph.aws4.cloudfront;" vertex="1" parent="710XWH-0g-zXLpikxpaZ-10">
          <mxGeometry x="250" y="70" width="78" height="78" as="geometry" />
        </mxCell>
        <mxCell id="710XWH-0g-zXLpikxpaZ-15" value="" style="endArrow=classic;html=1;rounded=0;" edge="1" parent="710XWH-0g-zXLpikxpaZ-10">
          <mxGeometry width="50" height="50" relative="1" as="geometry">
            <mxPoint x="365" y="110" as="sourcePoint" />
            <mxPoint x="365" y="179.68" as="targetPoint" />
          </mxGeometry>
        </mxCell>
        <mxCell id="710XWH-0g-zXLpikxpaZ-16" value="" style="endArrow=classic;html=1;rounded=0;" edge="1" parent="710XWH-0g-zXLpikxpaZ-10">
          <mxGeometry width="50" height="50" relative="1" as="geometry">
            <mxPoint x="420" y="240.22000000000003" as="sourcePoint" />
            <mxPoint x="540" y="240" as="targetPoint" />
          </mxGeometry>
        </mxCell>
        <mxCell id="710XWH-0g-zXLpikxpaZ-17" value="" style="endArrow=none;html=1;rounded=0;" edge="1" parent="710XWH-0g-zXLpikxpaZ-10">
          <mxGeometry width="50" height="50" relative="1" as="geometry">
            <mxPoint x="540" y="310" as="sourcePoint" />
            <mxPoint x="540" y="240" as="targetPoint" />
          </mxGeometry>
        </mxCell>
        <mxCell id="710XWH-0g-zXLpikxpaZ-18" value="" style="endArrow=classic;html=1;rounded=0;" edge="1" parent="710XWH-0g-zXLpikxpaZ-10">
          <mxGeometry width="50" height="50" relative="1" as="geometry">
            <mxPoint x="480" y="340" as="sourcePoint" />
            <mxPoint x="290" y="340" as="targetPoint" />
          </mxGeometry>
        </mxCell>
        <mxCell id="710XWH-0g-zXLpikxpaZ-12" value="" style="endArrow=classic;html=1;rounded=0;" edge="1" parent="1">
          <mxGeometry width="50" height="50" relative="1" as="geometry">
            <mxPoint x="710" y="168.5" as="sourcePoint" />
            <mxPoint x="620" y="168.5" as="targetPoint" />
          </mxGeometry>
        </mxCell>
      </root>
    </mxGraphModel>
  </diagram>
</mxfile>
